<?xml version="1.0" encoding="UTF-8"?>
<!DOCTYPE svg PUBLIC "-//W3C//DTD SVG 1.1//EN" "http://www.w3.org/Graphics/SVG/1.1/DTD/svg11.dtd">
<svg xmlns="http://www.w3.org/2000/svg" version="1.1" width="178px" height="178px" style="shape-rendering:geometricPrecision; text-rendering:geometricPrecision; image-rendering:optimizeQuality; fill-rule:evenodd; clip-rule:evenodd" xmlns:xlink="http://www.w3.org/1999/xlink">
<g><path style="opacity:1" fill="#fdfefd" d="M -0.5,-0.5 C 58.8333,-0.5 118.167,-0.5 177.5,-0.5C 177.5,58.8333 177.5,118.167 177.5,177.5C 118.167,177.5 58.8333,177.5 -0.5,177.5C -0.5,118.167 -0.5,58.8333 -0.5,-0.5 Z"/></g>
<g><path style="opacity:1" fill="#65bc17" d="M 108.5,6.5 C 110.936,7.87096 113.603,8.87096 116.5,9.5C 132.616,15.3977 145.616,25.3977 155.5,39.5C 154.998,40.521 154.332,40.6877 153.5,40C 142.213,31.1981 129.88,24.3648 116.5,19.5C 114.485,18.0762 112.152,17.4095 109.5,17.5C 107.585,17.7845 105.919,17.4511 104.5,16.5C 100.019,15.3516 95.3522,15.1849 90.5,16C 88.6803,16.2004 87.347,17.0337 86.5,18.5C 84.5956,18.7376 83.2623,19.7376 82.5,21.5C 80.124,22.512 79.124,24.3454 79.5,27C 79.3536,29.0342 80.0203,30.7009 81.5,32C 83.8333,32.6667 86.1667,32.6667 88.5,32C 91.1047,30.0692 91.1047,28.2358 88.5,26.5C 87.3049,28.297 85.6382,29.297 83.5,29.5C 83.5,27.5 83.5,25.5 83.5,23.5C 84.1667,23.1667 84.8333,22.8333 85.5,22.5C 89.7535,20.8681 93.7535,21.2015 97.5,23.5C 100.508,32.1551 97.5076,38.1551 88.5,41.5C 83.7971,41.5628 79.1304,41.2295 74.5,40.5C 69.5528,38.5519 65.8862,35.2185 63.5,30.5C 61.6132,24.2717 62.2799,18.4384 65.5,13C 64.5509,12.3828 63.7175,12.5494 63,13.5C 61.9055,15.0779 61.0722,16.7446 60.5,18.5C 59.6618,18.8417 59.3284,19.5084 59.5,20.5C 57.3074,21.8953 54.9741,22.8953 52.5,23.5C 48.1194,26.2825 47.4528,29.7825 50.5,34C 54.2204,35.392 56.2204,34.2253 56.5,30.5C 55.1667,30.5 53.8333,30.5 52.5,30.5C 52.7593,26.9319 54.7593,25.5985 58.5,26.5C 60.856,28.5573 61.856,31.224 61.5,34.5C 57.6787,42.2443 51.6787,44.7443 43.5,42C 40.6194,39.7213 38.6194,36.888 37.5,33.5C 37.6641,30.8127 37.4974,28.146 37,25.5C 35.9614,26.2438 35.4614,27.2438 35.5,28.5C 35.5,29.1667 35.5,29.8333 35.5,30.5C 31.1667,30.1667 29.1667,32.1667 29.5,36.5C 31.9418,36.8808 32.6085,36.2141 31.5,34.5C 32.325,33.6143 33.325,33.281 34.5,33.5C 36.3769,34.6591 36.8769,36.3258 36,38.5C 30.259,44.5202 26.4256,43.5202 24.5,35.5C 24.6482,32.3703 25.9816,29.8703 28.5,28C 34.5521,22.9474 40.8854,18.2807 47.5,14C 51.2186,11.6361 55.2186,10.1361 59.5,9.5C 63.3948,8.5376 67.0615,7.20427 70.5,5.5C 83.2166,4.00211 95.8833,4.33544 108.5,6.5 Z"/></g>
<g><path style="opacity:1" fill="#aedb7f" d="M 70.5,5.5 C 67.0615,7.20427 63.3948,8.5376 59.5,9.5C 62.6257,7.01034 66.2924,5.677 70.5,5.5 Z"/></g>
<g><path style="opacity:1" fill="#d1eab5" d="M 108.5,6.5 C 111.716,6.3455 114.383,7.3455 116.5,9.5C 113.603,8.87096 110.936,7.87096 108.5,6.5 Z"/></g>
<g><path style="opacity:1" fill="#a1d66b" d="M 104.5,16.5 C 98.3456,16.1004 92.3456,16.7671 86.5,18.5C 87.347,17.0337 88.6803,16.2004 90.5,16C 95.3522,15.1849 100.019,15.3516 104.5,16.5 Z"/></g>
<g><path style="opacity:1" fill="#a5d871" d="M 109.5,17.5 C 112.152,17.4095 114.485,18.0762 116.5,19.5C 113.848,19.5905 111.515,18.9238 109.5,17.5 Z"/></g>
<g><path style="opacity:1" fill="#f1f8e8" d="M 60.5,18.5 C 61.6378,21.3035 61.8045,24.3035 61,27.5C 60.3292,26.7476 59.4959,26.4142 58.5,26.5C 54.7593,25.5985 52.7593,26.9319 52.5,30.5C 53.8333,30.5 55.1667,30.5 56.5,30.5C 56.2204,34.2253 54.2204,35.392 50.5,34C 47.4528,29.7825 48.1194,26.2825 52.5,23.5C 54.8333,23.5 57.1667,23.5 59.5,23.5C 59.5,22.5 59.5,21.5 59.5,20.5C 59.3284,19.5084 59.6618,18.8417 60.5,18.5 Z"/></g>
<g><path style="opacity:1" fill="#a9d978" d="M 107.5,21.5 C 105.265,21.2053 103.265,21.5386 101.5,22.5C 99.901,22.2322 98.5676,22.5655 97.5,23.5C 93.7535,21.2015 89.7535,20.8681 85.5,22.5C 85.6107,21.8826 85.944,21.3826 86.5,21C 93.6791,20.1787 100.679,20.3454 107.5,21.5 Z"/></g>
<g><path style="opacity:1" fill="#a2d66d" d="M 59.5,20.5 C 59.5,21.5 59.5,22.5 59.5,23.5C 57.1667,23.5 54.8333,23.5 52.5,23.5C 54.9741,22.8953 57.3074,21.8953 59.5,20.5 Z"/></g>
<g><path style="opacity:1" fill="#95d05b" d="M 107.5,21.5 C 108.5,21.5 109.5,21.5 110.5,21.5C 110.5,21.8333 110.5,22.1667 110.5,22.5C 109.761,22.369 109.094,22.5357 108.5,23C 113.255,24.1848 117.588,26.0181 121.5,28.5C 114.786,26.2583 108.119,24.2583 101.5,22.5C 103.265,21.5386 105.265,21.2053 107.5,21.5 Z"/></g>
<g><path style="opacity:1" fill="#cae8ac" d="M 110.5,22.5 C 110.5,22.1667 110.5,21.8333 110.5,21.5C 113.152,21.4095 115.485,22.0762 117.5,23.5C 115.139,23.3259 112.806,22.9926 110.5,22.5 Z"/></g>
<g><path style="opacity:1" fill="#eef7e4" d="M 82.5,21.5 C 82.3284,22.4916 82.6618,23.1583 83.5,23.5C 83.5,25.5 83.5,27.5 83.5,29.5C 85.6382,29.297 87.3049,28.297 88.5,26.5C 91.1047,28.2358 91.1047,30.0692 88.5,32C 86.1667,32.6667 83.8333,32.6667 81.5,32C 80.0203,30.7009 79.3536,29.0342 79.5,27C 79.124,24.3454 80.124,22.512 82.5,21.5 Z"/></g>
<g><path style="opacity:1" fill="#d7edc0" d="M 63.5,30.5 C 62.8333,31.8333 62.1667,33.1667 61.5,34.5C 61.856,31.224 60.856,28.5573 58.5,26.5C 59.4959,26.4142 60.3292,26.7476 61,27.5C 61.8045,24.3035 61.6378,21.3035 60.5,18.5C 61.0722,16.7446 61.9055,15.0779 63,13.5C 63.7175,12.5494 64.5509,12.3828 65.5,13C 62.2799,18.4384 61.6132,24.2717 63.5,30.5 Z"/></g>
<g><path style="opacity:1" fill="#c4e5a3" d="M 37.5,33.5 C 36.8333,31.8333 36.1667,30.1667 35.5,28.5C 35.4614,27.2438 35.9614,26.2438 37,25.5C 37.4974,28.146 37.6641,30.8127 37.5,33.5 Z"/></g>
<g><path style="opacity:1" fill="#7ac435" d="M 110.5,22.5 C 112.806,22.9926 115.139,23.3259 117.5,23.5C 128.174,27.3408 137.84,33.0074 146.5,40.5C 146.5,41.1667 146.167,41.5 145.5,41.5C 137.819,36.6582 129.819,32.3249 121.5,28.5C 117.588,26.0181 113.255,24.1848 108.5,23C 109.094,22.5357 109.761,22.369 110.5,22.5 Z"/></g>
<g><path style="opacity:1" fill="#d7edc0" d="M 35.5,30.5 C 34.7375,31.2679 33.7375,31.7679 32.5,32C 33.4158,32.2784 34.0825,32.7784 34.5,33.5C 33.325,33.281 32.325,33.6143 31.5,34.5C 32.6085,36.2141 31.9418,36.8808 29.5,36.5C 29.1667,32.1667 31.1667,30.1667 35.5,30.5 Z"/></g>
<g><path style="opacity:1" fill="#b0dc83" d="M 74.5,40.5 C 79.1304,41.2295 83.7971,41.5628 88.5,41.5C 86.866,42.1611 85.0326,42.4944 83,42.5C 79.8502,42.6397 77.0169,41.973 74.5,40.5 Z"/></g>
<g><path style="opacity:1" fill="#c8e7a9" d="M 146.5,40.5 C 148.332,41.1405 148.665,42.1405 147.5,43.5C 146.478,43.1445 145.811,42.4778 145.5,41.5C 146.167,41.5 146.5,41.1667 146.5,40.5 Z"/></g>
<g><path style="opacity:1" fill="#cce7ff" d="M 82.5,50.5 C 82.5,57.8333 82.5,65.1667 82.5,72.5C 79.1667,72.5 75.8333,72.5 72.5,72.5C 75.2869,71.5233 78.2869,71.19 81.5,71.5C 81.1755,64.3134 81.5088,57.3134 82.5,50.5 Z"/></g>
<g><path style="opacity:1" fill="#6cb8ff" d="M 97.5,50.5 C 97.5,57.8333 97.5,65.1667 97.5,72.5C 96.5084,65.3524 96.175,58.0191 96.5,50.5C 92.1667,50.5 87.8333,50.5 83.5,50.5C 83.825,58.0191 83.4916,65.3524 82.5,72.5C 82.5,65.1667 82.5,57.8333 82.5,50.5C 87.5,49.1667 92.5,49.1667 97.5,50.5 Z"/></g>
<g><path style="opacity:1" fill="#1890ff" d="M 97.5,72.5 C 101.298,73.4834 105.298,73.8168 109.5,73.5C 109.5,74.8333 109.5,76.1667 109.5,77.5C 105.298,77.1832 101.298,77.5166 97.5,78.5C 97.5,87.8333 97.5,97.1667 97.5,106.5C 101.5,106.5 105.5,106.5 109.5,106.5C 109.5,108.167 109.5,109.833 109.5,111.5C 100.779,111.775 92.1127,111.442 83.5,110.5C 82.5056,100.013 82.1722,89.3464 82.5,78.5C 79.7131,77.5233 76.7131,77.19 73.5,77.5C 73.5,76.1667 73.5,74.8333 73.5,73.5C 76.7131,73.81 79.7131,73.4767 82.5,72.5C 83.4916,65.3524 83.825,58.0191 83.5,50.5C 87.8333,50.5 92.1667,50.5 96.5,50.5C 96.175,58.0191 96.5084,65.3524 97.5,72.5 Z"/></g>
<g><path style="opacity:1" fill="#d1e9ff" d="M 97.5,50.5 C 98.4912,57.3134 98.8245,64.3134 98.5,71.5C 102.702,71.1832 106.702,71.5166 110.5,72.5C 106.167,72.5 101.833,72.5 97.5,72.5C 97.5,65.1667 97.5,57.8333 97.5,50.5 Z"/></g>
<g><path style="opacity:1" fill="#d1ebb7" d="M 51.5,72.5 C 56.3054,71.5128 61.3054,71.1795 66.5,71.5C 66.7678,73.099 66.4345,74.4324 65.5,75.5C 65.5,74.8333 65.5,74.1667 65.5,73.5C 61.03,72.5139 56.3633,72.1805 51.5,72.5 Z"/></g>
<g><path style="opacity:1" fill="#88cb45" d="M 51.5,72.5 C 56.3633,72.1805 61.03,72.5139 65.5,73.5C 60.8333,73.5 56.1667,73.5 51.5,73.5C 51.7373,74.791 51.404,75.791 50.5,76.5C 50.2322,74.901 50.5655,73.5676 51.5,72.5 Z"/></g>
<g><path style="opacity:1" fill="#43a7ff" d="M 97.5,72.5 C 101.833,72.5 106.167,72.5 110.5,72.5C 110.784,74.4147 110.451,76.0813 109.5,77.5C 109.5,76.1667 109.5,74.8333 109.5,73.5C 105.298,73.8168 101.298,73.4834 97.5,72.5 Z"/></g>
<g><path style="opacity:1" fill="#1e91ff" d="M 148.5,96.5 C 142.5,96.5 136.5,96.5 130.5,96.5C 130.5,99.8333 130.5,103.167 130.5,106.5C 136.979,107.491 143.646,107.824 150.5,107.5C 150.5,108.833 150.5,110.167 150.5,111.5C 139.116,111.79 127.783,111.457 116.5,110.5C 115.34,98.6738 115.174,86.6738 116,74.5C 116.5,74 117,73.5 117.5,73C 128.167,72.3333 138.833,72.3333 149.5,73C 150,73.5 150.5,74 151,74.5C 151.667,81.1667 151.667,87.8333 151,94.5C 150.292,95.3805 149.458,96.0472 148.5,96.5 Z"/></g>
<g><path style="opacity:1" fill="#64bc16" d="M 27.5,72.5 C 32.5,72.5 37.5,72.5 42.5,72.5C 42.7329,78.6594 43.7329,84.6594 45.5,90.5C 46.1667,95.8333 46.8333,95.8333 47.5,90.5C 48.0099,85.6086 49.0099,80.942 50.5,76.5C 51.404,75.791 51.7373,74.791 51.5,73.5C 56.1667,73.5 60.8333,73.5 65.5,73.5C 65.5,74.1667 65.5,74.8333 65.5,75.5C 64.0251,80.4004 63.0251,85.4004 62.5,90.5C 61.0762,92.5145 60.4095,94.8478 60.5,97.5C 59.3262,102.375 57.9928,107.208 56.5,112C 49.8333,112.667 43.1667,112.667 36.5,112C 35.8767,109.393 35.21,106.893 34.5,104.5C 34.5905,101.848 33.9238,99.5145 32.5,97.5C 31.4766,91.4086 30.1432,85.4086 28.5,79.5C 28.3259,77.139 27.9926,74.8056 27.5,72.5 Z"/></g>
<g><path style="opacity:1" fill="#6ab8ff" d="M 72.5,72.5 C 75.8333,72.5 79.1667,72.5 82.5,72.5C 79.7131,73.4767 76.7131,73.81 73.5,73.5C 73.5,74.8333 73.5,76.1667 73.5,77.5C 76.7131,77.19 79.7131,77.5233 82.5,78.5C 79.1667,78.5 75.8333,78.5 72.5,78.5C 72.5,76.5 72.5,74.5 72.5,72.5 Z"/></g>
<g><path style="opacity:1" fill="#87c6ff" d="M 110.5,72.5 C 111.461,74.2646 111.795,76.2646 111.5,78.5C 107.167,78.5 102.833,78.5 98.5,78.5C 98.1667,78.5 97.8333,78.5 97.5,78.5C 101.298,77.5166 105.298,77.1832 109.5,77.5C 110.451,76.0813 110.784,74.4147 110.5,72.5 Z"/></g>
<g><path style="opacity:1" fill="#c2e4a0" d="M 27.5,72.5 C 27.9926,74.8056 28.3259,77.139 28.5,79.5C 26.6883,77.2866 26.3549,74.9533 27.5,72.5 Z"/></g>
<g><path style="opacity:1" fill="#d2e9ff" d="M 97.5,78.5 C 97.8333,78.5 98.1667,78.5 98.5,78.5C 98.5,87.5 98.5,96.5 98.5,105.5C 102.371,105.185 106.038,105.518 109.5,106.5C 105.5,106.5 101.5,106.5 97.5,106.5C 97.5,97.1667 97.5,87.8333 97.5,78.5 Z"/></g>
<g><path style="opacity:1" fill="#9ed0ff" d="M 130.5,77.5 C 132.833,77.5 135.167,77.5 137.5,77.5C 137.5,82.1667 137.5,86.8333 137.5,91.5C 135.167,91.5 132.833,91.5 130.5,91.5C 130.5,86.8333 130.5,82.1667 130.5,77.5 Z"/></g>
<g><path style="opacity:1" fill="#fcfdff" d="M 131.5,78.5 C 133.167,78.5 134.833,78.5 136.5,78.5C 136.5,82.5 136.5,86.5 136.5,90.5C 134.833,90.5 133.167,90.5 131.5,90.5C 131.5,86.5 131.5,82.5 131.5,78.5 Z"/></g>
<g><path style="opacity:1" fill="#c6e6a6" d="M 45.5,90.5 C 46.1667,90.5 46.8333,90.5 47.5,90.5C 46.8333,95.8333 46.1667,95.8333 45.5,90.5 Z"/></g>
<g><path style="opacity:1" fill="#d8eec0" d="M 62.5,90.5 C 62.5905,93.1522 61.9238,95.4855 60.5,97.5C 60.4095,94.8478 61.0762,92.5145 62.5,90.5 Z"/></g>
<g><path style="opacity:1" fill="#cae8ab" d="M 32.5,97.5 C 33.9238,99.5145 34.5905,101.848 34.5,104.5C 33.0762,102.485 32.4095,100.152 32.5,97.5 Z"/></g>
<g><path style="opacity:1" fill="#c3e3ff" d="M 148.5,96.5 C 143.025,97.4889 137.358,97.8222 131.5,97.5C 131.5,100.167 131.5,102.833 131.5,105.5C 138.354,105.176 145.021,105.509 151.5,106.5C 144.5,106.5 137.5,106.5 130.5,106.5C 130.5,103.167 130.5,99.8333 130.5,96.5C 136.5,96.5 142.5,96.5 148.5,96.5 Z"/></g>
<g><path style="opacity:1" fill="#41a6ff" d="M 130.5,106.5 C 137.5,106.5 144.5,106.5 151.5,106.5C 151.5,108.167 151.5,109.833 151.5,111.5C 151.167,111.5 150.833,111.5 150.5,111.5C 150.5,110.167 150.5,108.833 150.5,107.5C 143.646,107.824 136.979,107.491 130.5,106.5 Z"/></g>
<g><path style="opacity:1" fill="#84c5ff" d="M 109.5,106.5 C 110.461,108.265 110.795,110.265 110.5,112.5C 101.827,112.666 93.1603,112.5 84.5,112C 83.944,111.617 83.6107,111.117 83.5,110.5C 92.1127,111.442 100.779,111.775 109.5,111.5C 109.5,109.833 109.5,108.167 109.5,106.5 Z"/></g>
<g><path style="opacity:1" fill="#7fc3ff" d="M 116.5,110.5 C 127.783,111.457 139.116,111.79 150.5,111.5C 150.833,111.5 151.167,111.5 151.5,111.5C 140.341,112.659 129.008,112.826 117.5,112C 116.944,111.617 116.611,111.117 116.5,110.5 Z"/></g>
<g><path style="opacity:1" fill="#afdc82" d="M 103.5,120.5 C 101.565,119.85 99.5648,119.517 97.5,119.5C 96.5,118.167 95.5,118.167 94.5,119.5C 92.9606,121.982 91.4606,121.982 90,119.5C 89.5026,122.146 89.3359,124.813 89.5,127.5C 90.0431,127.56 90.3764,127.893 90.5,128.5C 88.5,129.833 86.5,129.833 84.5,128.5C 85.5748,125.562 85.7415,122.562 85,119.5C 83.6841,122.028 82.5174,122.028 81.5,119.5C 80.4824,121.594 79.4824,123.594 78.5,125.5C 77.4489,124.778 76.7822,123.778 76.5,122.5C 78.256,121.448 78.9227,119.781 78.5,117.5C 86.5069,117.334 94.5069,117.5 102.5,118C 103.252,118.671 103.586,119.504 103.5,120.5 Z"/></g>
<g><path style="opacity:1" fill="#6dbf1a" d="M 89.5,127.5 C 88.791,128.404 87.791,128.737 86.5,128.5C 86.1796,125.102 86.513,121.768 87.5,118.5C 88.1674,121.642 88.834,124.642 89.5,127.5 Z"/></g>
<g><path style="opacity:1" fill="#e7f4d9" d="M 97.5,119.5 C 99.5648,119.517 101.565,119.85 103.5,120.5C 102.167,122.5 102.167,124.5 103.5,126.5C 101.565,127.15 99.5648,127.483 97.5,127.5C 97.5,126.5 97.5,125.5 97.5,124.5C 98.8333,124.5 100.167,124.5 101.5,124.5C 101.62,121.795 100.62,121.128 98.5,122.5C 97.6143,121.675 97.281,120.675 97.5,119.5 Z"/></g>
<g><path style="opacity:1" fill="#a7d875" d="M 58.5,122.5 C 60.924,122.192 63.2573,122.526 65.5,123.5C 64.3333,123.833 63.1667,124.167 62,124.5C 60.3189,124.392 59.1522,123.725 58.5,122.5 Z"/></g>
<g><path style="opacity:1" fill="#cae7aa" d="M 73.5,120.5 C 74.871,122.936 75.871,125.603 76.5,128.5C 74.3455,126.383 73.3455,123.716 73.5,120.5 Z"/></g>
<g><path style="opacity:1" fill="#87ca46" d="M 97.5,119.5 C 97.281,120.675 97.6143,121.675 98.5,122.5C 100.62,121.128 101.62,121.795 101.5,124.5C 100.167,124.5 98.8333,124.5 97.5,124.5C 97.5,125.5 97.5,126.5 97.5,127.5C 96.5,128.833 95.5,128.833 94.5,127.5C 94.5,124.833 94.5,122.167 94.5,119.5C 95.5,118.167 96.5,118.167 97.5,119.5 Z"/></g>
<g><path style="opacity:1" fill="#a7d875" d="M 111.5,122.5 C 113.924,122.192 116.257,122.526 118.5,123.5C 117.333,123.833 116.167,124.167 115,124.5C 113.319,124.392 112.152,123.725 111.5,122.5 Z"/></g>
<g><path style="opacity:1" fill="#78c431" d="M 76.5,122.5 C 76.7822,123.778 77.4489,124.778 78.5,125.5C 78.7148,127.179 78.0481,128.179 76.5,128.5C 75.871,125.603 74.871,122.936 73.5,120.5C 72.4331,118.121 73.4331,117.121 76.5,117.5C 76.5,119.167 76.5,120.833 76.5,122.5 Z"/></g>
<g><path style="opacity:1" fill="#aad97a" d="M 103.5,126.5 C 103.586,127.496 103.252,128.329 102.5,129C 99.4459,129.821 96.4459,129.655 93.5,128.5C 93.6236,127.893 93.9569,127.56 94.5,127.5C 95.5,128.833 96.5,128.833 97.5,127.5C 99.5648,127.483 101.565,127.15 103.5,126.5 Z"/></g>
<g><path style="opacity:1" fill="#9bceff" d="M 105.5,136.5 C 99.0643,133.529 92.3976,132.862 85.5,134.5C 85.9175,133.778 86.5842,133.278 87.5,133C 91.1667,132.333 94.8333,132.333 98.5,133C 101.281,133.522 103.615,134.689 105.5,136.5 Z"/></g>
<g><path style="opacity:1" fill="#7bbcff" d="M 129.5,132.5 C 126.482,132.704 123.482,133.037 120.5,133.5C 121.946,132.06 123.779,131.393 126,131.5C 127.385,131.514 128.551,131.848 129.5,132.5 Z"/></g>
<g><path style="opacity:1" fill="#1d91ff" d="M 129.5,132.5 C 132.503,133.666 135.17,135.333 137.5,137.5C 137.833,138.833 138.167,140.167 138.5,141.5C 138.335,144.518 138.502,147.518 139,150.5C 140.039,149.756 140.539,148.756 140.5,147.5C 140.5,146.5 140.5,145.5 140.5,144.5C 142.703,144.396 144.703,143.73 146.5,142.5C 148.361,138.672 147.027,137.005 142.5,137.5C 142.33,138.822 142.663,139.989 143.5,141C 142.906,141.464 142.239,141.631 141.5,141.5C 140.549,140.081 140.216,138.415 140.5,136.5C 143.232,133.101 146.566,132.601 150.5,135C 151.679,137.796 151.679,140.629 150.5,143.5C 147.5,145.833 144.833,148.5 142.5,151.5C 136.627,154.931 130.96,158.598 125.5,162.5C 122.053,163.083 119.053,164.416 116.5,166.5C 114.435,166.517 112.435,166.85 110.5,167.5C 107.848,167.41 105.515,168.076 103.5,169.5C 100.57,170.299 97.5701,170.632 94.5,170.5C 86.8166,170.477 79.1499,170.143 71.5,169.5C 66.7669,167.256 61.7669,165.589 56.5,164.5C 43.8408,160 33.5075,152.334 25.5,141.5C 25.5,140.167 26.1667,139.5 27.5,139.5C 30.5886,141.925 33.9219,143.925 37.5,145.5C 42.0157,148.927 47.0157,151.593 52.5,153.5C 56.5021,155.61 60.8354,156.943 65.5,157.5C 72.1018,159.543 78.7685,159.877 85.5,158.5C 91.6098,156.891 95.6098,153.057 97.5,147C 97.107,143.447 95.107,141.947 91.5,142.5C 87.1577,142.176 85.1577,144.176 85.5,148.5C 87.8333,147.833 90.1667,147.167 92.5,146.5C 93.2686,150.725 91.6019,153.391 87.5,154.5C 84.2153,154.79 81.2153,154.123 78.5,152.5C 78.5,152.167 78.5,151.833 78.5,151.5C 77.7814,149.236 77.448,146.903 77.5,144.5C 78.4918,142.544 79.4918,140.544 80.5,138.5C 81.5846,136.413 83.2512,135.08 85.5,134.5C 92.3976,132.862 99.0643,133.529 105.5,136.5C 108.123,138.962 110.456,141.629 112.5,144.5C 113.11,145.391 113.443,146.391 113.5,147.5C 114.227,152.934 113.227,157.934 110.5,162.5C 111.274,163.711 112.107,163.711 113,162.5C 114.122,160.593 114.955,158.593 115.5,156.5C 116.434,155.432 116.768,154.099 116.5,152.5C 121.543,153.569 125.377,151.903 128,147.5C 128.369,142.373 125.869,140.04 120.5,140.5C 120.5,141.833 120.5,143.167 120.5,144.5C 121.5,144.5 122.5,144.5 123.5,144.5C 123.67,145.822 123.337,146.989 122.5,148C 116.364,148.694 113.697,145.861 114.5,139.5C 115.5,136.5 117.5,134.5 120.5,133.5C 123.482,133.037 126.482,132.704 129.5,132.5 Z"/></g>
<g><path style="opacity:1" fill="#51a8ff" d="M 27.5,139.5 C 26.1667,139.5 25.5,140.167 25.5,141.5C 23.552,139.211 21.552,136.878 19.5,134.5C 20.0016,133.479 20.6683,133.312 21.5,134C 23.3962,136.068 25.3962,137.901 27.5,139.5 Z"/></g>
<g><path style="opacity:1" fill="#6ab5ff" d="M 80.5,138.5 C 79.4918,140.544 78.4918,142.544 77.5,144.5C 77.5,143.833 77.5,143.167 77.5,142.5C 77.7376,140.596 78.7376,139.262 80.5,138.5 Z"/></g>
<g><path style="opacity:1" fill="#e2f0ff" d="M 114.5,139.5 C 113.697,145.861 116.364,148.694 122.5,148C 123.337,146.989 123.67,145.822 123.5,144.5C 122.5,144.5 121.5,144.5 120.5,144.5C 120.5,143.167 120.5,141.833 120.5,140.5C 125.869,140.04 128.369,142.373 128,147.5C 125.377,151.903 121.543,153.569 116.5,152.5C 116.768,154.099 116.434,155.432 115.5,156.5C 114.833,153.5 114.167,150.5 113.5,147.5C 113.443,146.391 113.11,145.391 112.5,144.5C 113.167,142.833 113.833,141.167 114.5,139.5 Z"/></g>
<g><path style="opacity:1" fill="#92c9ff" d="M 146.5,142.5 C 146.541,138.757 145.874,138.59 144.5,142C 143.251,142.74 142.251,142.573 141.5,141.5C 142.239,141.631 142.906,141.464 143.5,141C 142.663,139.989 142.33,138.822 142.5,137.5C 147.027,137.005 148.361,138.672 146.5,142.5 Z"/></g>
<g><path style="opacity:1" fill="#48a3ff" d="M 44.5,142.5 C 44.9731,143.906 45.9731,144.573 47.5,144.5C 49.3713,145.797 51.3713,146.797 53.5,147.5C 51.0065,147.131 50.3398,147.797 51.5,149.5C 47.6837,148.091 44.0171,146.424 40.5,144.5C 37.4137,141.777 34.0804,139.277 30.5,137C 28.6707,135.887 27.8374,134.387 28,132.5C 32.9735,136.735 38.4735,140.069 44.5,142.5 Z"/></g>
<g><path style="opacity:1" fill="#d6ebff" d="M 140.5,136.5 C 140.216,138.415 140.549,140.081 141.5,141.5C 142.251,142.573 143.251,142.74 144.5,142C 145.874,138.59 146.541,138.757 146.5,142.5C 144.703,143.73 142.703,144.396 140.5,144.5C 140.5,145.5 140.5,146.5 140.5,147.5C 139.833,145.5 139.167,143.5 138.5,141.5C 138.167,140.167 137.833,138.833 137.5,137.5C 138.609,137.443 139.609,137.11 140.5,136.5 Z"/></g>
<g><path style="opacity:1" fill="#9ecfff" d="M 44.5,142.5 C 46.0269,142.427 47.0269,143.094 47.5,144.5C 45.9731,144.573 44.9731,143.906 44.5,142.5 Z"/></g>
<g><path style="opacity:1" fill="#a7d5ff" d="M 77.5,142.5 C 77.5,143.167 77.5,143.833 77.5,144.5C 77.448,146.903 77.7814,149.236 78.5,151.5C 77.8826,151.389 77.3826,151.056 77,150.5C 76.1993,147.633 76.3659,144.966 77.5,142.5 Z"/></g>
<g><path style="opacity:1" fill="#7fc2ff" d="M 138.5,141.5 C 139.167,143.5 139.833,145.5 140.5,147.5C 140.539,148.756 140.039,149.756 139,150.5C 138.502,147.518 138.335,144.518 138.5,141.5 Z"/></g>
<g><path style="opacity:1" fill="#cce5ff" d="M 150.5,143.5 C 148.833,147.167 146.167,149.833 142.5,151.5C 144.833,148.5 147.5,145.833 150.5,143.5 Z"/></g>
<g><path style="opacity:1" fill="#9fd0ff" d="M 52.5,153.5 C 57.1646,154.057 61.4979,155.39 65.5,157.5C 60.8354,156.943 56.5021,155.61 52.5,153.5 Z"/></g>
<g><path style="opacity:1" fill="#e8f3ff" d="M 85.5,158.5 C 78.8198,158.388 72.1531,158.054 65.5,157.5C 61.4979,155.39 57.1646,154.057 52.5,153.5C 47.0157,151.593 42.0157,148.927 37.5,145.5C 38.791,145.737 39.791,145.404 40.5,144.5C 44.0171,146.424 47.6837,148.091 51.5,149.5C 54.6599,152 58.3266,153.333 62.5,153.5C 67.2169,155.238 72.2169,155.904 77.5,155.5C 80.8969,156.494 84.2302,156.16 87.5,154.5C 91.6019,153.391 93.2686,150.725 92.5,146.5C 90.1667,147.167 87.8333,147.833 85.5,148.5C 85.1577,144.176 87.1577,142.176 91.5,142.5C 95.107,141.947 97.107,143.447 97.5,147C 95.6098,153.057 91.6098,156.891 85.5,158.5 Z"/></g>
<g><path style="opacity:1" fill="#76baff" d="M 51.5,149.5 C 55.533,150.025 59.1996,151.358 62.5,153.5C 58.3266,153.333 54.6599,152 51.5,149.5 Z"/></g>
<g><path style="opacity:1" fill="#1992ff" d="M 53.5,147.5 C 58.2159,149.739 63.2159,151.405 68.5,152.5C 66.7354,153.461 64.7354,153.795 62.5,153.5C 59.1996,151.358 55.533,150.025 51.5,149.5C 50.3398,147.797 51.0065,147.131 53.5,147.5 Z"/></g>
<g><path style="opacity:1" fill="#a4d2ff" d="M 53.5,147.5 C 59.1662,148.39 64.4995,150.057 69.5,152.5C 69.1667,152.5 68.8333,152.5 68.5,152.5C 63.2159,151.405 58.2159,149.739 53.5,147.5 Z"/></g>
<g><path style="opacity:1" fill="#73baff" d="M 68.5,152.5 C 68.8333,152.5 69.1667,152.5 69.5,152.5C 71.9029,152.448 74.2362,152.781 76.5,153.5C 76.9175,154.222 77.5842,154.722 78.5,155C 78.2716,155.399 77.9382,155.565 77.5,155.5C 72.2169,155.904 67.2169,155.238 62.5,153.5C 64.7354,153.795 66.7354,153.461 68.5,152.5 Z"/></g>
<g><path style="opacity:1" fill="#c4e2ff" d="M 78.5,152.5 C 81.2153,154.123 84.2153,154.79 87.5,154.5C 84.2302,156.16 80.8969,156.494 77.5,155.5C 77.9382,155.565 78.2716,155.399 78.5,155C 77.5842,154.722 76.9175,154.222 76.5,153.5C 77.4916,153.672 78.1583,153.338 78.5,152.5 Z"/></g>
<g><path style="opacity:1" fill="#8dc8ff" d="M 65.5,157.5 C 72.1531,158.054 78.8198,158.388 85.5,158.5C 78.7685,159.877 72.1018,159.543 65.5,157.5 Z"/></g>
<g><path style="opacity:1" fill="#9ed0ff" d="M 113.5,147.5 C 114.167,150.5 114.833,153.5 115.5,156.5C 114.955,158.593 114.122,160.593 113,162.5C 112.107,163.711 111.274,163.711 110.5,162.5C 113.227,157.934 114.227,152.934 113.5,147.5 Z"/></g>
<g><path style="opacity:1" fill="#77bbff" d="M 56.5,164.5 C 61.7669,165.589 66.7669,167.256 71.5,169.5C 66.085,168.806 61.085,167.14 56.5,164.5 Z"/></g>
<g><path style="opacity:1" fill="#a2d0ff" d="M 125.5,162.5 C 122.947,164.584 119.947,165.917 116.5,166.5C 119.053,164.416 122.053,163.083 125.5,162.5 Z"/></g>
<g><path style="opacity:1" fill="#7fc1ff" d="M 110.5,167.5 C 108.485,168.924 106.152,169.59 103.5,169.5C 105.515,168.076 107.848,167.41 110.5,167.5 Z"/></g>
<g><path style="opacity:1" fill="#8ec8ff" d="M 71.5,169.5 C 79.1499,170.143 86.8166,170.477 94.5,170.5C 91.6862,171.165 88.6862,171.498 85.5,171.5C 80.576,171.646 75.9093,170.979 71.5,169.5 Z"/></g>
</svg>
