<?xml version="1.0" standalone="no"?><!DOCTYPE svg PUBLIC "-//W3C//DTD SVG 1.1//EN" "http://www.w3.org/Graphics/SVG/1.1/DTD/svg11.dtd"><svg t="1758170805704" class="icon" viewBox="0 0 1024 1024" version="1.1" xmlns="http://www.w3.org/2000/svg" p-id="80964" xmlns:xlink="http://www.w3.org/1999/xlink" width="200" height="200"><path d="M5.298087 0H1024v1022.901797H5.298087z" fill="#FFFFFF" p-id="80965"></path><path d="M0 0.912696h1018.88742V1024H0z" fill="#FFFFFF" opacity=".5" p-id="80966"></path><path d="M974.959304 349.718261L532.465159 82.93658a36.567188 36.567188 0 0 0-35.780637 0L54.435246 349.718261a37.38342 37.38342 0 0 0-13.927884 49.894029 35.57287 35.57287 0 0 0 48.751305 14.239536l54.635594-33.02029v520.548174a54.910145 54.910145 0 0 0 54.168116 55.756058H602.675942s18.669449-96.26342 45.657044-124.905739 237.397333-245.448348 237.397333-245.448348v-205.764638l54.331362 32.834783a35.506087 35.506087 0 0 0 48.751305-14.239536 37.353739 37.353739 0 0 0-13.853682-49.894029z m-602.905971 523.872464H248.097391a13.727536 13.727536 0 0 1-13.549449-13.935305V731.937391a13.734957 13.734957 0 0 1 13.549449-13.935304h124.059826a13.734957 13.734957 0 0 1 13.54945 13.935304v127.74029h0.103884a13.905623 13.905623 0 0 1-13.757218 13.935305z m0-204.057971H248.097391a13.734957 13.734957 0 0 1-13.549449-13.942725V527.872a13.734957 13.734957 0 0 1 13.549449-13.942725h124.059826a13.734957 13.734957 0 0 1 13.54945 13.942725v127.73287h0.103884a13.913043 13.913043 0 0 1-13.757218 13.942724z m210.476522 190.130087a13.734957 13.734957 0 0 1-13.549449 13.935304h-124.067247a13.734957 13.734957 0 0 1-13.549449-13.935304V731.937391a13.742377 13.742377 0 0 1 13.549449-13.935304h124.067247a13.742377 13.742377 0 0 1 13.549449 13.935304z m0-204.057971a13.742377 13.742377 0 0 1-13.549449 13.942724h-124.067247a13.742377 13.742377 0 0 1-13.549449-13.942724V527.872a13.742377 13.742377 0 0 1 13.549449-13.942725h124.067247a13.742377 13.742377 0 0 1 13.549449 13.942725z" fill="#2E97DE" p-id="80967" data-spm-anchor-id="a313x.search_index.0.i5.59eb3a81aqRgua" class=""></path><path d="M720.458203 820.253681c-8.110377 8.281043-14.937043 15.463884-20.376116 21.125565s-8.96371 9.371826-10.455188 10.892986a69.312928 69.312928 0 0 0-7.999073 9.690898 68.036638 68.036638 0 0 0-5.016116 9.690899 80.361739 80.361739 0 0 0-4.904811 12.614493 423.327536 423.327536 0 0 0-6.077218 20.034782c-2.137043 7.294145-4.058899 14.261797-5.869449 20.902957a129.558261 129.558261 0 0 0-3.524638 15.36 18.706551 18.706551 0 0 0 1.810551 14.150493 14.632812 14.632812 0 0 0 13.356522 3.049739 129.78087 129.78087 0 0 0 14.729275-3.487536c6.611478-1.743768 13.438145-3.806609 20.776812-6.203363s14.298899-4.897391 20.902956-7.42029a201.572174 201.572174 0 0 0 15.263536-6.425971 48.88487 48.88487 0 0 0 10.128696-6.099478c3.205565-2.500638 5.936232-5.001275 8.533333-7.294145 1.068522-0.742029 4.051478-3.806609 9.282783-9.149217s11.738899-12.191536 19.737971-20.361276c7.887768-8.162319 16.851478-17.311536 26.772406-27.336347l29.681159-30.920348 79.909102-82.001623-69.446493-71.539015z" fill="#d81e06" p-id="80968" data-spm-anchor-id="a313x.search_index.0.i6.59eb3a81aqRgua" class="selected"></path><path d="M979.225971 666.386551a92.590377 92.590377 0 0 0-14.617971-22.00116 71.286725 71.286725 0 0 0-17.281855-14.699594 53.285101 53.285101 0 0 0-8.748522-3.480116 37.591188 37.591188 0 0 0-10.455188-1.743768 32.315362 32.315362 0 0 0-10.989449 1.521159 33.984928 33.984928 0 0 0-10.766841 5.88429c-2.671304 2.285449-6.084638 5.446493-10.24742 9.364406s-7.568696 7.294145-10.559073 10.017391l69.446493 71.234783c1.706667-1.52858 3.628522-3.376232 5.550377-5.335188 1.699246-1.743768 3.710145-3.814029 6.077217-6.099479s5.016116-5.008696 7.999073-7.94713a30.141217 30.141217 0 0 0 5.869449-9.47571 27.596058 27.596058 0 0 0 1.817971-9.913507 44.647884 44.647884 0 0 0-0.742029-9.364406 54.064232 54.064232 0 0 0-2.352232-7.961971z" fill="#d81e06" p-id="80969" data-spm-anchor-id="a313x.search_index.0.i7.59eb3a81aqRgua" class="selected"></path></svg>